<svg width="46" height="46" viewBox="0 0 46 46" fill="none" xmlns="http://www.w3.org/2000/svg">
<path d="M35.7917 21.8607H10.2012V25.5982H35.7917V21.8607Z" fill="#FFA95E"/>
<path d="M39.9586 8.73218H6.03358C4.81456 8.73218 3.83325 9.72111 3.83325 10.9325V23.3985C3.83325 24.6098 4.81456 25.5988 6.03358 25.5988H8.67092V21.0908C8.67092 20.6691 9.00825 20.3242 9.43758 20.3242H36.5546C36.9839 20.3242 37.3212 20.6691 37.3212 21.0908V25.5988H39.9586C41.1776 25.5988 42.1666 24.6098 42.1666 23.3985V10.9325C42.1666 9.72111 41.1776 8.73218 39.9586 8.73218ZM7.71258 13.6158C7.29093 13.6158 6.94592 13.2709 6.94592 12.8492C6.94592 12.4198 7.29093 12.0825 7.71258 12.0825C8.13424 12.0825 8.47925 12.4198 8.47925 12.8492C8.47925 13.2709 8.13424 13.6158 7.71258 13.6158ZM11.0706 13.6158C10.6413 13.6158 10.3039 13.2709 10.3039 12.8492C10.3039 12.4198 10.6413 12.0825 11.0706 12.0825C11.4922 12.0825 11.8373 12.4198 11.8373 12.8492C11.8373 13.2709 11.4922 13.6158 11.0706 13.6158ZM39.2698 34.7357C34.0731 33.4225 33.5404 28.3425 33.5206 28.1269C33.482 27.7054 33.1114 27.3842 32.6899 27.4321C32.268 27.4688 31.9562 27.8409 31.9932 28.2632C31.9988 28.3268 32.6248 34.6376 38.894 36.2226C38.9572 36.2383 39.0201 36.2458 39.0827 36.2458C39.4252 36.2458 39.7374 36.0144 39.8254 35.6671C39.9291 35.2568 39.6805 34.8397 39.2698 34.7357ZM13.999 28.2624C14.0361 27.8402 13.7243 27.4681 13.3024 27.4314C12.8805 27.3924 12.5091 27.7061 12.4717 28.1277C12.4668 28.1808 11.948 33.415 6.72243 34.7349C6.31214 34.839 6.0632 35.256 6.1669 35.6663C6.25487 36.0137 6.56708 36.245 6.90961 36.245C6.97212 36.245 7.03501 36.2376 7.09828 36.2218C13.3679 34.6376 13.9934 28.3261 13.999 28.2624ZM22.9961 27.8761C22.5727 27.8761 22.2295 28.219 22.2295 28.6428V36.5011C22.2295 36.9249 22.5727 37.2678 22.9961 37.2678C23.4195 37.2678 23.7628 36.9249 23.7628 36.5011V28.6428C23.7628 28.219 23.4195 27.8761 22.9961 27.8761Z" fill="#FFA95E"/>
</svg>
