<svg width="46" height="46" viewBox="0 0 46 46" fill="none" xmlns="http://www.w3.org/2000/svg">
<path d="M19.8907 38.5166C19.8907 40.223 21.2871 41.6191 22.9938 41.6191C24.7161 41.6191 26.097 40.223 26.097 38.5166H27.6486C28.502 38.5166 29.2002 37.8185 29.2002 36.9654V33.8474H16.7875V36.9654C16.7875 37.8185 17.4857 38.5166 18.3391 38.5166H19.8907ZM12.1327 22.9887C12.1327 26.0446 13.3895 28.7903 15.4221 30.7449H30.5811C33.0326 28.3715 34.3515 24.8345 33.6843 21.0186C32.9395 16.7372 29.5415 13.2469 25.2902 12.3626C18.2925 10.9356 12.1327 16.2562 12.1327 22.9887ZM22.9938 15.2325C23.8627 15.2325 24.5454 15.9304 24.5454 16.7838C24.5454 17.6524 23.8627 18.335 22.9938 18.335C20.4337 18.335 18.3391 20.4292 18.3391 22.9887C18.3391 23.8574 17.6564 24.5399 16.7875 24.5399C15.9341 24.5399 15.2359 23.8574 15.2359 22.9887C15.2359 18.7228 18.727 15.2325 22.9938 15.2325ZM24.5515 8.06517V5.93222C24.5515 5.07485 23.8576 4.38098 22.9999 4.38098C22.1423 4.38098 21.4483 5.07485 21.4483 5.93222V8.06517C21.4483 8.9227 22.1423 9.61641 22.9999 9.61641C23.8576 9.61641 24.5515 8.9227 24.5515 8.06517ZM36.1657 9.83312C35.5595 9.2272 34.5777 9.2272 33.9716 9.83312L32.4626 11.3419C31.8564 11.9479 31.8564 12.9295 32.4626 13.5355C33.0686 14.1414 34.0505 14.1414 34.6565 13.5355L36.1657 12.0266C36.7718 11.4207 36.7718 10.439 36.1657 9.83312ZM40.0674 21.4432H37.9339C37.0764 21.4432 36.3824 22.1369 36.3824 22.9944C36.3824 23.8518 37.0764 24.5457 37.9339 24.5457H40.0674C40.9251 24.5457 41.619 23.8518 41.619 22.9944C41.619 22.1369 40.9251 21.4432 40.0674 21.4432ZM8.06588 21.4432H5.93245C5.07487 21.4432 4.38086 22.1369 4.38086 22.9944C4.38086 23.8518 5.07487 24.5457 5.93245 24.5457H8.06588C8.92358 24.5457 9.61747 23.8518 9.61747 22.9944C9.61747 22.1369 8.92358 21.4432 8.06588 21.4432ZM12.0297 9.83312C11.4237 9.2272 10.4418 9.2272 9.83561 9.83312C9.22957 10.439 9.22957 11.4207 9.83561 12.0266L11.3448 13.5355C11.9509 14.1414 12.9327 14.1414 13.5389 13.5355C14.145 12.9295 14.145 11.9479 13.5389 11.3419L12.0297 9.83312Z" fill="#FFA95E"/>
</svg>
