<svg width="46" height="46" viewBox="0 0 46 46" fill="none" xmlns="http://www.w3.org/2000/svg">
<path fill-rule="evenodd" clip-rule="evenodd" d="M18.8514 22.9473C18.3281 22.5046 17.8384 21.9277 17.4014 21.2386C16.008 19.0431 15.0937 15.7148 15.0937 12.789C15.0937 10.1871 15.8115 8.39026 16.8963 7.2278C18.032 6.01072 19.5912 5.45105 21.3229 5.45105C23.0546 5.45105 24.6138 6.01072 25.7504 7.2278C26.8342 8.39026 27.552 10.1871 27.552 12.789C27.552 15.7148 26.6378 19.0431 25.2444 21.2386C24.8074 21.9277 24.3177 22.5046 23.7944 22.9473C24.494 23.5376 24.9789 24.3743 25.1169 25.323C25.9181 25.0901 26.8659 25.0394 27.899 25.1716C30.4788 25.5003 33.625 26.9206 35.8771 28.7874C37.88 30.4482 38.8058 32.1474 39.008 33.7238C39.2207 35.375 38.6563 36.9333 37.5513 38.2663C36.4464 39.5993 35.0203 40.4427 33.3576 40.5404C31.7716 40.6334 29.9297 40.0392 27.9268 38.3794C25.6737 36.5116 23.6948 33.6835 22.8936 31.2091C22.7038 30.6226 22.5821 30.0543 22.5314 29.5157C22.1509 29.6422 21.7455 29.7103 21.3229 29.7103C20.9012 29.7103 20.4949 29.6422 20.1144 29.5157C20.0636 30.0543 19.9419 30.6226 19.7522 31.2091C18.951 33.6835 16.9721 36.5116 14.719 38.3794C12.7161 40.0392 10.8742 40.6334 9.28814 40.5404C7.62639 40.4427 6.19943 39.5993 5.09447 38.2663C3.98951 36.9333 3.42506 35.375 3.63781 33.7238C3.84002 32.1474 4.76577 30.4482 6.76868 28.7874C9.02173 26.9206 12.167 25.5003 14.7468 25.1716C15.7799 25.0403 16.7277 25.0901 17.5298 25.323C17.6669 24.3752 18.1518 23.5386 18.8514 22.9473ZM21.3229 23.9603C22.3809 23.9603 23.2395 24.8189 23.2395 25.8769C23.2395 26.9349 22.3809 27.7936 21.3229 27.7936C20.2649 27.7936 19.4062 26.9349 19.4062 25.8769C19.4062 24.8189 20.2649 23.9603 21.3229 23.9603ZM37.5906 19.6947C37.5906 16.5054 35.005 13.9198 31.8166 13.9198C31.2876 13.9198 30.8583 14.3492 30.8583 14.8782C30.8583 15.4072 31.2876 15.8365 31.8166 15.8365C33.947 15.8365 35.6739 17.5644 35.6739 19.6947C35.6739 20.2237 36.1033 20.6531 36.6323 20.6531C37.1613 20.6531 37.5906 20.2237 37.5906 19.6947ZM42.4062 19.6947C42.4062 13.846 37.6653 9.10423 31.8166 9.10423C31.2876 9.10423 30.8583 9.53356 30.8583 10.0626C30.8583 10.5916 31.2876 11.0209 31.8166 11.0209C36.6064 11.0209 40.4895 14.904 40.4895 19.6947C40.4895 20.2237 40.9189 20.6531 41.4479 20.6531C41.9769 20.6531 42.4062 20.2237 42.4062 19.6947ZM32.0294 18.4901C31.508 18.4901 31.0854 18.9128 31.0854 19.4341C31.0854 19.9554 31.508 20.378 32.0294 20.378C32.5507 20.378 32.9733 19.9554 32.9733 19.4341C32.9733 18.9128 32.5507 18.4901 32.0294 18.4901Z" fill="#FFA95E"/>
</svg>
