<svg width="46" height="46" viewBox="0 0 46 46" fill="none" xmlns="http://www.w3.org/2000/svg">
<path d="M26.496 28.6121V6.62405C26.496 5.42805 26.0361 4.32405 25.2081 3.58805C24.4721 2.76005 23.368 2.30005 22.172 2.30005C19.78 2.30005 17.94 4.23205 17.94 6.62405V28.6121C15.456 30.0841 13.8 32.8441 13.8 36.0641C13.8 40.8481 17.572 44.6201 22.172 44.6201C26.864 44.6201 30.636 40.7561 30.636 36.0641C30.636 32.8441 28.98 30.0841 26.496 28.6121ZM22.172 41.8601C19.044 41.8601 16.56 39.2841 16.56 36.0641C16.56 33.9481 17.664 32.0161 19.412 31.0041L20.792 30.1761V20.5161H23.8281V30.1761L25.2081 31.0041C26.9561 32.0161 28.0601 33.9481 28.0601 36.0641C27.876 39.2841 25.3 41.8601 22.172 41.8601ZM28.336 7.54405H30.636C31.096 7.54405 31.556 7.08405 31.556 6.62405C31.556 6.16405 31.096 5.70405 30.636 5.70405H28.2441C28.2441 5.98005 28.336 6.34805 28.336 6.62405V7.54405ZM28.336 9.47605V11.316H29.4401C29.9 11.316 30.3601 10.856 30.3601 10.396C30.3601 9.93605 29.9 9.47605 29.4401 9.47605H28.336ZM30.636 13.248H28.336V15.088H30.636C31.096 15.088 31.556 14.628 31.556 14.168C31.556 13.616 31.096 13.248 30.636 13.248Z" fill="#FFA95E"/>
<path d="M30.3599 17.94C30.3599 17.388 29.8999 17.02 29.4399 17.02H28.2439V18.86H29.4399C29.9919 18.86 30.3599 18.4 30.3599 17.94ZM30.6359 20.7H28.3359V22.54H30.6359C31.0959 22.54 31.5559 22.08 31.5559 21.62C31.5559 21.16 31.0959 20.7 30.6359 20.7ZM30.3599 25.392C30.3599 24.932 29.8999 24.472 29.4399 24.472H28.2439V26.312H29.4399C29.9919 26.312 30.3599 25.944 30.3599 25.392Z" fill="#FFA95E"/>
</svg>
