<svg width="93" height="93" viewBox="0 0 93 93" fill="none" xmlns="http://www.w3.org/2000/svg">
<path d="M87.1648 26.3257L49.1461 7.55934C49.1085 7.54118 49.0704 7.52411 49.0313 7.50903C47.4019 6.88273 45.5982 6.88273 43.9688 7.50903C43.9299 7.52411 43.8916 7.54082 43.8542 7.55934L5.83517 26.3257C4.09653 27.0105 2.7 28.3562 1.95128 30.0683C1.20255 31.7804 1.16262 33.7193 1.84021 35.4608C2.51781 37.2022 3.85774 38.6043 5.56671 39.3601C7.27568 40.1159 9.21447 40.1638 10.9587 39.4934C10.9999 39.4774 11.0406 39.4596 11.08 39.4398L15.4857 37.2378V76.2022H9.10161C7.92135 76.2022 6.78942 76.6711 5.95485 77.5057C5.12027 78.3402 4.65142 79.4722 4.65142 80.6524V84.5977C4.65142 84.959 4.79494 85.3055 5.05043 85.561C5.30591 85.8164 5.65241 85.96 6.01372 85.96H86.9855C87.3468 85.96 87.6933 85.8164 87.9488 85.561C88.2043 85.3055 88.3478 84.959 88.3478 84.5977V80.6524C88.3481 80.0679 88.2332 79.4891 88.0097 78.9491C87.7861 78.409 87.4584 77.9183 87.045 77.505C86.6317 77.0917 86.141 76.7639 85.601 76.5404C85.0609 76.3168 84.4821 76.2019 83.8976 76.2022H77.5142V37.2378L81.9199 39.4398C81.9595 39.4597 82 39.4775 82.0414 39.4932C83.7841 40.1563 85.7182 40.1036 87.4222 39.3465C89.1262 38.5894 90.4617 37.1894 91.1377 35.4517C91.8137 33.714 91.7753 31.7795 91.0309 30.07C90.2864 28.3605 88.8963 27.0146 87.1637 26.3257H87.1648ZM85.118 79.4314C85.2786 79.5916 85.4059 79.782 85.4926 79.9916C85.5793 80.2013 85.6237 80.426 85.6232 80.6528V83.2357H7.37603V80.6528C7.37603 80.1951 7.55783 79.7562 7.88144 79.4326C8.20505 79.109 8.64396 78.9272 9.10161 78.9272H83.8983C84.1248 78.9266 84.3493 78.9708 84.5586 79.0574C84.7679 79.1439 84.9581 79.271 85.118 79.4314ZM74.7896 76.2026H18.2103V35.876L46.5 21.7364L74.7896 35.8758V76.2026ZM88.6233 34.4534C88.2136 35.517 87.4024 36.3771 86.3644 36.8481C85.3265 37.3191 84.145 37.3633 83.0748 36.9713L47.1061 18.9933C46.9175 18.9005 46.7102 18.8522 46.5001 18.8522C46.2899 18.8522 46.0826 18.9005 45.894 18.9933C14.3267 34.709 9.92553 36.971 9.92553 36.971C8.85161 37.3598 7.66771 37.3096 6.63053 36.8313C5.59336 36.353 4.78652 35.4852 4.38497 34.416C3.98342 33.3467 4.01952 32.1623 4.48546 31.1195C4.95139 30.0768 5.80959 29.2597 6.87397 28.8454C6.96479 28.8107 21.6185 21.5726 45.0003 10.032C45.9684 9.67455 47.0323 9.67455 48.0003 10.032C71.5268 21.6436 86.0359 28.8102 86.1267 28.8453C87.2012 29.258 88.0678 30.0806 88.536 31.1322C89.0041 32.1837 89.0355 33.3782 88.6232 34.4529L88.6233 34.4534Z" fill="white"/>
<path d="M45.5261 41.5954V39.185C45.5261 38.8237 45.3826 38.4772 45.1271 38.2217C44.8716 37.9662 44.5251 37.8227 44.1638 37.8227C43.8025 37.8227 43.456 37.9662 43.2005 38.2217C42.945 38.4772 42.8015 38.8237 42.8015 39.185V41.5954H40.8539V36.3623C40.8539 36.001 40.7104 35.6545 40.4549 35.399C40.1995 35.1435 39.8529 35 39.4916 35C39.1303 35 38.7838 35.1435 38.5283 35.399C38.2729 35.6545 38.1293 36.001 38.1293 36.3623V41.5954H37.9967C36.7894 41.5968 35.632 42.077 34.7782 42.9307C33.9245 43.7843 33.4443 44.9418 33.4428 46.1491V46.2815H31.0319C30.6706 46.2815 30.3241 46.425 30.0686 46.6805C29.8131 46.936 29.6696 47.2825 29.6696 47.6438C29.6696 48.0051 29.8131 48.3516 30.0686 48.6071C30.3241 48.8626 30.6706 49.0061 31.0319 49.0061H33.4428V50.953H25.8259C25.4646 50.953 25.1181 51.0965 24.8626 51.352C24.6071 51.6074 24.4636 51.954 24.4636 52.3153C24.4636 52.6766 24.6071 53.0231 24.8626 53.2786C25.1181 53.534 25.4646 53.6776 25.8259 53.6776H33.4428V55.6246H31.0319C30.6706 55.6246 30.3241 55.7681 30.0686 56.0236C29.8131 56.2791 29.6696 56.6256 29.6696 56.9869C29.6696 57.3482 29.8131 57.6947 30.0686 57.9502C30.3241 58.2057 30.6706 58.3492 31.0319 58.3492H33.4428V60.2984H26.947C26.6269 59.4235 26.009 58.6892 25.2016 58.2244C24.3942 57.7596 23.4489 57.5939 22.5316 57.7565C21.6142 57.919 20.7834 58.3993 20.1849 59.1133C19.5863 59.8272 19.2583 60.729 19.2583 61.6607C19.2583 62.5923 19.5863 63.4942 20.1849 64.2081C20.7834 64.922 21.6142 65.4024 22.5316 65.5649C23.4489 65.7274 24.3942 65.5618 25.2016 65.097C26.009 64.6321 26.6269 63.8979 26.947 63.023H33.4428V63.1554C33.4442 64.3627 33.9244 65.5202 34.7782 66.374C35.6319 67.2277 36.7894 67.7079 37.9967 67.7093H38.1293V70.1195C38.1293 70.4808 38.2729 70.8273 38.5283 71.0828C38.7838 71.3383 39.1303 71.4818 39.4916 71.4818C39.8529 71.4818 40.1995 71.3383 40.4549 71.0828C40.7104 70.8273 40.8539 70.4808 40.8539 70.1195V67.7099H42.8015V72.9427C42.8015 73.304 42.945 73.6506 43.2005 73.906C43.456 74.1615 43.8025 74.305 44.1638 74.305C44.5251 74.305 44.8716 74.1615 45.1271 73.906C45.3826 73.6506 45.5261 73.304 45.5261 72.9427V67.7099H47.4736V70.12C47.4736 70.4813 47.6172 70.8279 47.8727 71.0833C48.1281 71.3388 48.4746 71.4823 48.836 71.4823C49.1973 71.4823 49.5438 71.3388 49.7993 71.0833C50.0547 70.8279 50.1983 70.4813 50.1983 70.12V67.7099H52.1458V72.9427C52.1458 73.304 52.2893 73.6506 52.5448 73.906C52.8003 74.1615 53.1468 74.305 53.5081 74.305C53.8694 74.305 54.2159 74.1615 54.4714 73.906C54.7269 73.6506 54.8704 73.304 54.8704 72.9427V67.7099H55.0032C56.2105 67.7085 57.368 67.2282 58.2218 66.3745C59.0755 65.5208 59.5557 64.3633 59.5571 63.1559V63.0235H67.174C67.5353 63.0235 67.8818 62.88 68.1373 62.6245C68.3928 62.369 68.5363 62.0225 68.5363 61.6612C68.5363 61.2999 68.3928 60.9534 68.1373 60.6979C67.8818 60.4424 67.5353 60.2989 67.174 60.2989H59.5571V58.3497H61.9678C62.3292 58.3497 62.6757 58.2062 62.9311 57.9507C63.1866 57.6952 63.3302 57.3487 63.3302 56.9874C63.3302 56.6261 63.1866 56.2796 62.9311 56.0241C62.6757 55.7686 62.3292 55.6251 61.9678 55.6251H59.5571V53.6776H66.0529C66.373 54.5525 66.991 55.2868 67.7984 55.7517C68.6058 56.2165 69.5512 56.3822 70.4686 56.2197C71.3859 56.0571 72.2168 55.5768 72.8154 54.8628C73.4139 54.1489 73.742 53.2469 73.742 52.3153C73.742 51.3836 73.4139 50.4817 72.8154 49.7677C72.2168 49.0538 71.3859 48.5734 70.4686 48.4109C69.5512 48.2483 68.6058 48.414 67.7984 48.8788C66.991 49.3437 66.373 50.078 66.0529 50.953H59.5571V49.0061H61.9678C62.3292 49.0061 62.6757 48.8626 62.9311 48.6071C63.1866 48.3516 63.3302 48.0051 63.3302 47.6438C63.3302 47.2825 63.1866 46.936 62.9311 46.6805C62.6757 46.425 62.3292 46.2815 61.9678 46.2815H59.5571V46.1491C59.5557 44.9418 59.0754 43.7843 58.2217 42.9307C57.368 42.077 56.2105 41.5968 55.0032 41.5954H54.8704V39.185C54.8704 38.8237 54.7269 38.4772 54.4714 38.2217C54.2159 37.9662 53.8694 37.8227 53.5081 37.8227C53.1468 37.8227 52.8003 37.9662 52.5448 38.2217C52.2893 38.4772 52.1458 38.8237 52.1458 39.185V41.5954H50.1983V36.3623C50.1983 36.001 50.0547 35.6545 49.7993 35.399C49.5438 35.1435 49.1973 35 48.836 35C48.4746 35 48.1281 35.1435 47.8727 35.399C47.6172 35.6545 47.4736 36.001 47.4736 36.3623V41.5954H45.5261ZM23.2228 62.9018C22.9774 62.9018 22.7376 62.829 22.5336 62.6926C22.3296 62.5563 22.1706 62.3625 22.0768 62.1358C21.9829 61.9091 21.9584 61.6597 22.0063 61.419C22.0542 61.1784 22.1724 60.9573 22.3459 60.7838C22.5194 60.6104 22.7405 60.4922 22.9811 60.4444C23.2218 60.3966 23.4712 60.4212 23.6979 60.5151C23.9246 60.609 24.1183 60.7681 24.2546 60.9721C24.3909 61.1762 24.4636 61.416 24.4636 61.6614C24.4632 61.9903 24.3323 62.3056 24.0997 62.5381C23.8671 62.7707 23.5517 62.9014 23.2228 62.9016V62.9018ZM69.7773 51.0754C70.0227 51.0754 70.2625 51.1482 70.4665 51.2845C70.6705 51.4209 70.8295 51.6147 70.9233 51.8414C71.0172 52.068 71.0418 52.3175 70.9939 52.5581C70.946 52.7988 70.8278 53.0198 70.6543 53.1933C70.4808 53.3668 70.2597 53.4849 70.0191 53.5328C69.7784 53.5806 69.529 53.556 69.3023 53.4621C69.0756 53.3682 68.8819 53.2092 68.7456 53.0052C68.6093 52.8012 68.5365 52.5613 68.5365 52.316C68.5369 51.987 68.6677 51.6717 68.9002 51.4391C69.1328 51.2064 69.4482 51.0756 69.7771 51.0752L69.7773 51.0754ZM56.8327 46.1493V63.1561C56.8322 63.6411 56.6393 64.1061 56.2963 64.449C55.9534 64.792 55.4884 64.9849 55.0034 64.9854H37.9967C37.5117 64.9848 37.0468 64.7919 36.7039 64.449C36.3609 64.1061 36.168 63.6411 36.1674 63.1561V46.1491C36.168 45.6641 36.3609 45.1992 36.7039 44.8563C37.0468 44.5134 37.5118 44.3205 37.9967 44.32H55.0032C55.4882 44.3205 55.9532 44.5133 56.2961 44.8562C56.6391 45.1992 56.832 45.6641 56.8325 46.1491L56.8327 46.1493Z" fill="white"/>
<path d="M40.9369 46.217C40.3301 46.2177 39.7483 46.459 39.3192 46.8881C38.8901 47.3171 38.6488 47.8989 38.6482 48.5057V59.6312C38.6491 60.2378 38.8905 60.8192 39.3196 61.2479C39.7487 61.6767 40.3303 61.9177 40.9369 61.9181H52.0633C52.6698 61.9177 53.2515 61.6767 53.6806 61.248C54.1097 60.8193 54.3511 60.2378 54.3519 59.6312V48.5057C54.3514 47.8989 54.11 47.3171 53.681 46.888C53.2519 46.4589 52.6701 46.2176 52.0633 46.217H40.9369ZM51.6264 59.1936H41.3735V48.9416H51.6264V59.1936Z" fill="white"/>
</svg>
