<svg width="22" height="22" viewBox="0 0 22 22" fill="none" xmlns="http://www.w3.org/2000/svg">
<path d="M17.4167 10.0834H4.58333C3.57081 10.0834 2.75 10.9042 2.75 11.9167V18.3334C2.75 19.3459 3.57081 20.1667 4.58333 20.1667H17.4167C18.4292 20.1667 19.25 19.3459 19.25 18.3334V11.9167C19.25 10.9042 18.4292 10.0834 17.4167 10.0834Z" stroke="#9D3BB4" stroke-width="1.5" stroke-linecap="round" stroke-linejoin="round"/>
<path d="M6.4165 10.0834V6.41671C6.4165 5.20113 6.89939 4.03534 7.75893 3.1758C8.61847 2.31626 9.78426 1.83337 10.9998 1.83337C12.2154 1.83337 13.3812 2.31626 14.2407 3.1758C15.1003 4.03534 15.5832 5.20113 15.5832 6.41671V10.0834" stroke="#9D3BB4" stroke-width="1.5" stroke-linecap="round" stroke-linejoin="round"/>
</svg>
