<svg width="46" height="46" viewBox="0 0 46 46" fill="none" xmlns="http://www.w3.org/2000/svg">
<path fill-rule="evenodd" clip-rule="evenodd" d="M8.46412 5.70763C7.57834 6.01712 6.8507 6.55781 6.3057 7.31161C5.44374 8.50341 5.47623 7.82677 5.47623 24.5622V39.8351L5.8201 40.1794L6.16382 40.5238H16.3795C26.2281 40.5238 26.607 40.5141 26.9258 40.2557L27.2565 39.9876L27.3265 32.5746L27.3966 25.1616L28.1486 25.1821C28.7105 25.1975 28.9759 25.2782 29.1991 25.5016C29.4915 25.7942 29.499 25.9167 29.5676 31.5136L29.6376 37.2269L30.027 38.0211C30.7964 39.5904 32.1706 40.4488 33.9096 40.4464C35.3034 40.4444 36.1937 40.0514 37.1309 39.0244C38.2777 37.7675 38.2517 38.0046 38.252 28.8188L38.2524 20.8125L37.2015 20.8587L36.1507 20.9048V28.6846C36.1507 37.2721 36.1756 37.0167 35.2562 37.8254C34.3206 38.6482 32.8748 38.3912 32.0316 37.2519C31.7473 36.8678 31.7365 36.6716 31.6686 30.5879C31.5992 24.3777 31.5956 24.3158 31.2852 23.8799C30.8283 23.2383 30.0696 22.9871 28.5891 22.9871H27.3362L27.2964 15.797L27.2565 8.60695L26.8822 7.89664C26.4349 7.04758 25.5702 6.23149 24.6824 5.82029C24.05 5.5275 23.863 5.51978 16.6115 5.48751C9.76828 5.45721 9.1314 5.47446 8.46412 5.70763ZM22.9845 13.6575V17.5156H16.4014H9.81828V13.6575V9.79945H16.4014H22.9845V13.6575ZM35.2753 9.95096C35.0592 10.0771 35.0302 10.3418 35.0302 12.1915V14.2889H34.452H33.8736L33.9381 15.797C34.0106 17.4978 34.2598 18.1771 35.059 18.8521C35.7173 19.408 36.3087 19.62 37.2012 19.62C38.522 19.62 39.5005 19.0308 40.1134 17.8663C40.3457 17.4253 40.4212 16.9824 40.4663 15.797L40.5237 14.2889H39.948H39.3722V12.1894C39.3722 10.2118 39.3554 10.0809 39.0831 9.93497C38.5031 9.62408 38.4024 9.93469 38.3604 12.1635L38.3217 14.2187L37.2362 14.2597L36.1507 14.3006V12.2704C36.1507 10.612 36.1103 10.2 35.9306 10.0198C35.6754 9.76437 35.6074 9.75722 35.2753 9.95096ZM18.1402 24.8109C17.885 26.3155 17.6386 27.7517 17.5926 28.0026L17.5092 28.4585H18.5661C19.1474 28.4585 19.6229 28.4946 19.6229 28.5388C19.6229 28.5828 18.4253 30.2944 16.9616 32.3422C15.498 34.39 14.3012 35.948 14.3022 35.8043C14.3032 35.6608 14.523 34.2492 14.7906 32.6674C15.0583 31.0855 15.2781 29.7466 15.279 29.692C15.28 29.6374 14.8034 29.5743 14.2199 29.5517L13.1589 29.5107L15.8438 25.7476C17.3204 23.6779 18.5455 22.0049 18.5664 22.0299C18.5871 22.0548 18.3954 23.3062 18.1402 24.8109Z" fill="#FFA95E"/>
</svg>
