<svg width="41" height="41" viewBox="0 0 41 41" fill="none" xmlns="http://www.w3.org/2000/svg">
<circle opacity="0.2" cx="20.5" cy="20.5" r="20" stroke="#9D3BB4"/>
<path d="M22.6317 22.9703V11.3886C22.6317 10.7587 22.3894 10.1772 21.9532 9.78951C21.5656 9.35338 20.9841 9.11108 20.3541 9.11108C19.0942 9.11108 18.125 10.1287 18.125 11.3886V22.9703C16.8166 23.7457 15.9443 25.1994 15.9443 26.8955C15.9443 29.4153 17.9311 31.4022 20.3541 31.4022C22.8255 31.4022 24.8123 29.3669 24.8123 26.8955C24.8123 25.1994 23.94 23.7457 22.6317 22.9703ZM20.3541 29.9484C18.7065 29.9484 17.3981 28.5915 17.3981 26.8955C17.3981 25.7809 17.9796 24.7633 18.9003 24.2302L19.6272 23.7941V18.7059H21.2264V23.7941L21.9532 24.2302C22.874 24.7633 23.4555 25.7809 23.4555 26.8955C23.3585 28.5915 22.0017 29.9484 20.3541 29.9484ZM23.6008 11.8732H24.8123C25.0546 11.8732 25.2969 11.6309 25.2969 11.3886C25.2969 11.1464 25.0546 10.9041 24.8123 10.9041H23.5524C23.5524 11.0494 23.6008 11.2433 23.6008 11.3886V11.8732ZM23.6008 12.8909V13.8601H24.1823C24.4246 13.8601 24.6669 13.6178 24.6669 13.3755C24.6669 13.1332 24.4246 12.8909 24.1823 12.8909H23.6008ZM24.8123 14.8777H23.6008V15.8469H24.8123C25.0546 15.8469 25.2969 15.6046 25.2969 15.3623C25.2969 15.0715 25.0546 14.8777 24.8123 14.8777Z" fill="#9D3BB4"/>
<path d="M24.6668 17.3491C24.6668 17.0583 24.4245 16.8645 24.1822 16.8645H23.5522V17.8337H24.1822C24.473 17.8337 24.6668 17.5914 24.6668 17.3491ZM24.8122 18.8029H23.6007V19.772H24.8122C25.0545 19.772 25.2968 19.5297 25.2968 19.2874C25.2968 19.0452 25.0545 18.8029 24.8122 18.8029ZM24.6668 21.2743C24.6668 21.032 24.4245 20.7897 24.1822 20.7897H23.5522V21.7588H24.1822C24.473 21.7588 24.6668 21.565 24.6668 21.2743Z" fill="#9D3BB4"/>
</svg>
